<svg xmlns="http://www.w3.org/2000/svg"
shape-rendering="geometricPrecision"
width="4000" height="4000" viewBox="0 0 1024 1024">
  <metadata>null</metadata>

<path d="
M 63.911 631.11
C 64.411 628.231 64.672 625.371 65.441 622.534
C 68.235 612.224 73.621 602.849 79.253 593.862
C 83.962 586.35 89.649 579.328 93.799 571.473
C 96.795 565.804 98.401 559.531 100.319 553.457
C 102.726 545.836 105.132 538.204 107.78 530.665
C 111.754 519.353 116.24 508.059 119.607 496.554
C 120.858 492.279 123.181 487.754 123.396 483.257
C 123.429 482.557 123.023 481.731 123.309 481.074
C 123.372 480.931 124.317 479.429 123.954 479.336
C 123.168 479.132 122.62 479.893 122.072 480.332
C 121.28 481.406 120.32 481.92 118.964 481.982
C 118.679 481.995 117.262 482.092 117.415 481.742
C 119.203 480.733 120.843 479.93 122.497 478.664
C 123.428 477.951 124.105 476.571 124.83 475.644
C 126.154 473.949 127.625 472.369 129.073 470.78
C 133.382 466.048 138.098 461.157 141.522 455.727
C 142.029 455.494 143.044 458.859 143.288 459.568
C 144.834 464.051 146.474 468.507 147.906 473.028
C 151.421 484.125 155.905 494.885 159.378 505.995
C 165.247 524.768 172.496 543.095 178.795 561.723
C 182.281 572.032 186.139 582.149 189.97 592.332
C 191.919 597.512 193.493 603.157 196.165 608
C 194.843 608.373 192.816 608.012 191.421 607.971
C 188.694 607.892 185.876 607.801 183.152 607.946
C 172.578 608.508 161.824 607.749 151.284 607.924
C 151.29 607.442 152.94 606.571 153.371 606.108
C 154.9 604.461 156.213 602.825 157.043 600.704
C 159.332 594.851 157.807 588.329 156.089 582.557
C 154.483 577.158 152.033 571.468 148.484 567.045
C 140.337 556.889 127.726 551.366 114.847 554.593
C 112.388 555.209 110.41 556.689 108.268 557.961
C 105.717 559.476 103.109 561.165 101.177 563.459
C 96.238 569.321 95 578.045 93.568 585.376
C 89.847 604.41 92.211 629.768 112.142 638.97
C 117.848 641.605 123.359 641.782 129.479 642.196
C 129.531 642.258 126.703 643.311 126.237 643.477
C 124.354 644.15 122.551 645.236 120.75 646.109
C 114.823 648.985 108.927 651.946 102.889 654.59
C 96.754 657.275 89.912 660.819 82.998 660.548
C 81.056 660.472 79.045 660.295 77.194 659.657
C 65.672 655.686 63.037 641.792 63.911 631.11 Z
M 100.603 560.635
C 100.596 560.783 100.588 560.931 100.58 561.08
C 100.998 561.534 101.72 560.628 102.073 560.277
C 103.458 558.903 104.726 557.578 106.366 556.487
C 110.62 553.655 114.881 552.117 119.947 551.45
C 128.274 550.354 137.351 552.766 144.288 557.404
C 145.934 558.504 147.602 559.701 148.973 561.135
C 149.665 561.859 150.343 563.154 151.252 563.598
C 151.049 562.346 150.334 561.217 149.967 560.008
C 148.269 554.414 146.321 548.865 144.348 543.36
C 139.931 531.038 135.86 518.59 131.439 506.268
C 129.873 501.904 128.189 497.514 126.81 493.091
C 126.533 492.202 125.856 488.842 125.008 488.718
C 124.077 491.327 123.261 494.003 122.278 496.603
C 121.241 499.312 120.347 502.095 119.355 504.824
C 117.653 509.488 116.419 514.309 114.451 518.871
C 114.059 519.798 113.727 520.734 113.401 521.687
C 111.581 526.51 110.015 531.493 108.435 536.402
C 107.729 538.391 107.019 540.388 106.377 542.398
C 104.444 548.378 103.116 554.881 100.603 560.635 Z"
opacity="1" fill="rgb(216,79,11)" fill-rule="evenodd" />
<path d="
M 183.412 636.081
C 185.394 629.168 189.964 623.893 196.078 620.155
C 198.078 618.932 200.409 617.781 202.623 617.007
C 203.033 616.864 204.83 616.963 204.959 616.707
C 197.756 609.588 192.396 600.324 197.466 590.356
C 198.328 588.66 199.507 587.074 200.866 585.744
C 202.641 584.008 204.851 582.633 207.095 581.586
C 207.909 581.206 208.833 581.256 209.63 580.853
C 207.735 579.502 205.194 578.769 203.184 577.474
C 197.517 573.819 191.962 567.761 189.923 561.233
C 189.073 558.514 188.802 555.685 188.548 552.862
C 186.717 532.539 205.988 517.806 224.837 517.145
C 227.223 517.061 229.947 517.87 232.235 518.496
C 238.557 520.226 244.204 523.054 249.186 527.348
C 252.334 530.062 254.885 533.365 256.921 536.983
C 263.199 548.137 261.927 563.007 253.191 572.58
C 248.413 577.815 241.214 581.713 234.304 583.091
C 229.489 584.051 224.46 584.31 219.587 583.576
C 216.853 583.165 213.767 581.766 210.994 582.224
C 207.146 582.86 205.088 586.427 205.703 590.116
C 206.641 595.732 214.748 596.731 219.248 597.337
C 230.146 598.806 241.278 597.843 251.934 601.053
C 256.521 602.435 260.077 605.335 264.335 607.228
C 267.479 605.978 269.269 602.491 269.909 599.359
C 271.327 592.429 270.684 585.036 270.672 578.01
C 270.631 553.91 270.461 529.803 270.41 505.716
C 270.399 500.241 270.633 494.78 270.407 489.31
C 270.29 486.477 269.694 483.353 267.23 481.597
C 265.192 480.144 263.301 480.963 261.081 480.476
C 262.045 479.455 263.953 478.771 265.225 478.074
C 268.537 476.259 271.936 474.565 275.106 472.503
C 278.541 470.267 281.955 467.787 285.092 465.148
C 287.441 463.172 289.566 460.636 292.431 459.386
C 293.055 459.543 292.612 462.905 292.599 463.489
C 292.505 467.996 292.421 472.494 292.398 477.004
C 292.336 489.335 292.367 501.671 292.228 514
C 292.152 520.798 291.377 528.187 292.352 534.915
C 293.686 533.74 294.358 530.992 295.39 529.469
C 298.053 525.536 301.108 521.874 305.188 519.353
C 313.441 514.254 323.982 515.007 330.816 522.197
C 333.802 525.338 335.461 529.231 336.563 533.359
C 338.31 539.899 337.926 546.521 337.97 553.192
C 338.022 561.255 338.374 569.355 338.077 577.427
C 337.777 585.579 336.261 597.23 342.234 603.804
C 344.098 605.856 346.271 606.231 348.514 607.553
C 348.218 608.058 346.539 607.786 346.005 607.763
C 343.845 607.673 341.662 607.74 339.499 607.763
C 332.501 607.84 325.498 607.869 318.499 607.807
C 316.039 607.785 311.892 608.542 309.675 607.508
C 310.282 607.188 311.117 607.018 311.661 606.613
C 316.499 603.008 316.744 597.006 316.748 591.507
C 316.757 578.841 316.67 566.174 316.627 553.509
C 316.606 547.331 317.583 539.786 314.843 534.045
C 311.958 528.003 304.464 526.041 298.842 529.614
C 296.222 531.279 294.368 534.273 293.239 537.099
C 291.18 542.673 292.139 549.8 292.168 555.646
C 292.214 564.931 292.234 574.216 292.229 583.501
C 292.226 589.67 291.032 598.254 295.192 603.369
C 296.93 605.506 299.163 606.387 301.508 607.608
C 292.784 606.919 283.771 607.956 275.001 607.774
C 273.004 607.732 271.006 607.76 269.009 607.729
C 267.694 607.708 266.489 607.448 265.504 608.43
C 268.527 612.445 270.909 615.897 272.354 620.822
C 273.46 624.595 273.601 628.624 273.291 632.522
C 273.027 635.846 272.393 639.195 271.23 642.326
C 268.822 648.813 263.493 654.452 258.026 658.471
C 244.234 668.61 225.998 670.71 209.591 667.221
C 195.427 664.209 179.752 652.449 183.412 636.081 Z
M 198.954 626.6
C 197.393 641.592 212.765 650.123 224.914 654.073
C 227.569 654.936 230.272 655.78 233.027 656.256
C 236.206 656.805 239.423 657.146 242.653 657.135
C 251.278 657.108 262.685 654.551 263.758 644.242
C 264.524 636.882 259.62 631.603 253.327 628.744
C 243.106 624.099 230.992 624.077 220.086 622.07
C 216.373 621.387 212.729 620.291 209.127 619.176
C 208.011 618.83 206.58 617.573 205.456 617.596
C 204.386 617.619 203.31 618.561 202.576 619.244
C 200.432 621.241 199.255 623.709 198.954 626.6 Z
M 208.501 539.619
C 207.888 547.528 208.656 555.452 210.461 563.155
C 211.57 567.886 212.969 572.503 215.833 576.497
C 216.841 577.902 218.17 579.105 219.57 580.111
C 220.607 580.855 221.719 581.334 222.882 581.833
C 226.52 583.396 230.456 581.797 232.934 578.845
C 236.692 574.367 238.172 567.756 238.694 562.068
C 239.561 552.632 239.736 542.574 237.085 533.388
C 236.062 529.844 234.918 526.417 232.656 523.436
C 228.526 517.992 219.151 517.701 214.499 522.763
C 210.388 527.236 208.957 533.732 208.501 539.619 Z"
opacity="1" fill="rgb(215,78,11)" fill-rule="evenodd" />
<path d="
M 226.55 515.594
C 228.073 515.324 230.007 513.966 231.424 513.27
C 236.628 510.714 241.59 507.78 246.708 505.064
C 250.566 503.017 254.53 501.039 259.009 501.727
C 262.344 502.239 262.999 505.581 263.515 508.371
C 264.486 513.631 261.212 521.667 255.447 522.762
C 254.033 523.031 252.634 521.891 251.617 521.057
C 249.36 519.204 247.349 517.413 244.631 516.229
C 240.523 514.44 236.344 513.981 231.934 514.676
C 230.456 514.909 229.072 515.625 227.603 515.812
C 227.306 515.85 226.7 515.568 226.55 515.594 Z"
opacity="1" fill="rgb(219,83,17)" fill-rule="evenodd" />
<path d="
M 344.883 583.079
C 345.464 580.726 345.992 578.418 347.197 576.286
C 352.264 567.317 362.645 562.727 371.574 558.606
C 377.372 555.93 384.837 552.647 388.514 547.135
C 389.687 545.376 390.008 543.02 390.332 540.973
C 391.331 534.661 391.945 525.019 386.674 520.25
C 383.338 517.231 377.472 517.338 373.415 518.61
C 364.738 521.332 367.717 532.557 368.196 539.226
C 368.329 541.08 368.357 542.95 367.695 544.718
C 365.488 550.612 357.367 552.427 352.802 548.193
C 347.759 543.515 348.332 535.213 351.62 529.698
C 356.395 521.689 366.912 516.667 375.991 516.099
C 380.177 515.836 384.218 515.899 388.336 516.807
C 391.088 517.415 393.927 518.203 396.379 519.632
C 403.754 523.93 407.838 531.28 409.074 539.56
C 409.659 543.483 409.408 547.601 409.47 551.558
C 409.577 558.377 409.565 565.215 409.568 572.043
C 409.571 577.579 409.414 583.202 409.829 588.724
C 409.966 590.544 409.93 593.441 411.37 594.779
C 412.717 596.031 414.451 595.091 415.465 593.91
C 417.618 591.399 418.88 588.238 419.884 585.145
C 420.915 592.441 417.388 602.737 410.814 606.625
C 407.548 608.558 403.747 608.902 400.061 608.275
C 394.477 607.325 390.667 602.777 389.546 597.329
C 389.123 595.277 388.961 593.111 388.964 591.023
C 388.964 590.844 389.059 588.802 388.806 588.775
C 388.485 588.74 388.297 589.094 388.153 589.287
C 383.526 596.772 380.052 604.561 371.035 607.627
C 363.624 610.147 354.35 607.994 349.303 601.879
C 345.234 596.949 343.728 589.287 344.883 583.079 Z
M 364.979 577.595
C 363.785 584.545 364.533 598.243 374.551 597.749
C 375.78 597.688 376.931 597.279 378.039 596.763
C 379.574 596.048 381.075 595.209 382.39 594.138
C 384.473 592.441 386.062 590.075 387.515 587.838
C 389.838 584.264 389.236 579.414 389.259 575.332
C 389.307 566.915 389.216 558.461 389.534 550.059
C 387.099 551.449 384.965 553.374 382.645 554.953
C 377.318 558.58 371.912 562.424 368.461 568.017
C 366.599 571.034 365.934 574.259 364.979 577.595 Z"
opacity="1" fill="rgb(215,79,12)" fill-rule="evenodd" />
<path d="
M 413.449 455.112
C 413.94 451.806 414.121 448.677 415.42 445.534
C 420.949 432.159 434.44 423.584 448.439 421.518
C 452.597 420.904 457.008 420.801 461.191 421.191
C 462.365 421.301 463.585 421.356 464.729 421.659
C 465.056 421.745 465.804 422.105 466.128 421.904
C 467.056 401.357 466.375 380.576 466.252 360.01
C 466.188 349.194 465.449 337.81 467.123 327.093
C 467.712 322.107 469.701 317.654 472.01 313.249
C 478.255 301.339 488.776 292.209 498.939 283.717
C 506.392 277.489 513.86 271.121 520.678 264.194
C 528.139 256.612 534.945 248.317 541.774 240.177
C 544.61 236.796 547.181 233.172 550.085 229.846
C 556.647 222.334 563.737 215.562 571.433 209.238
C 575.33 206.036 579.305 203.537 583.647 200.99
C 585.27 200.037 586.873 198.791 588.602 198.06
C 588.278 224.857 588.832 251.695 588.714 278.502
C 588.668 289.001 588.595 299.499 588.587 309.998
C 588.584 314.194 587.92 318.773 588.33 322.917
C 579.993 322.428 571.218 320.265 563.225 317.924
C 560.914 317.247 556.226 316.753 554.675 314.83
C 553.471 313.338 553.415 310.71 553.066 308.889
C 552.134 304.035 551.161 299.189 550.374 294.307
C 548.477 282.554 546.809 270.778 544.973 259.013
C 544.453 255.677 543.903 252.344 543.407 249.007
C 543.058 246.661 543.034 244.185 542.364 241.915
C 541.466 243.551 541.823 245.639 541.691 247.463
C 541.442 250.926 541.047 254.431 540.53 257.866
C 538.591 270.768 536.861 283.671 534.453 296.5
C 533.738 300.305 532.988 304.092 532.209 307.885
C 531.885 309.465 531.53 311.886 530.319 313.049
C 529.374 313.957 527.601 314.356 526.39 314.776
C 523.812 315.67 521.249 316.499 518.623 317.236
C 507.527 320.35 495.83 322.682 484.417 324.268
C 480.661 324.79 476.936 325.494 473.17 325.948
C 471.616 326.135 469.662 326.008 468.476 327.128
C 468.429 327.771 470.737 327.624 471.23 327.657
C 474.392 327.868 477.547 328.253 480.693 328.651
C 494.022 330.334 507.459 332.169 520.689 334.511
C 524.467 335.179 528.627 335.551 532.2 337.02
C 532.674 337.215 535.483 338.737 535.282 339.294
C 532.497 340.949 529.39 341.945 526.492 343.379
C 520.599 346.294 515.153 349.733 509.701 353.379
C 503.871 357.278 498.073 362.003 495.276 368.642
C 494.16 371.291 494.311 374.392 494.252 377.212
C 494.145 382.307 494.196 387.405 494.199 392.502
C 494.204 403.169 494.161 413.835 494.156 424.502
C 494.152 432.562 494.999 441.309 493.101 449.213
C 491.635 455.321 488.58 460.676 484.95 465.741
C 474.984 479.648 456.772 486.825 440.058 483.984
C 426.082 481.608 412.53 470.437 413.449 455.112 Z"
opacity="1" fill="rgb(216,79,10)" fill-rule="evenodd" />
<path d="
M 414.766 536.483
C 424.774 529.773 435.01 523.593 443.759 515.141
C 444.351 516.577 443.759 518.939 443.755 520.49
C 443.742 524.918 443.454 529.375 443.553 533.797
C 443.662 534.435 445.028 531.689 445.168 531.354
C 445.895 529.624 446.867 527.939 447.851 526.342
C 450.817 521.525 455.501 517.14 461.06 515.625
C 473.982 512.102 485.564 523.09 485.488 535.899
C 486.429 535.608 486.884 534.077 487.226 533.275
C 488.149 531.109 489.217 528.98 490.532 527.023
C 494.509 521.107 500.173 516.301 507.506 515.566
C 518.579 514.456 527.283 522.887 529.184 533.394
C 530.362 539.907 530.28 546.558 530.277 553.146
C 530.272 566.842 529.188 580.893 530.426 594.541
C 530.76 598.219 531.935 602.186 534.684 604.815
C 535.693 605.781 536.938 606.524 538.217 607.074
C 538.659 607.264 539.812 607.441 539.952 607.924
C 538.821 608.206 537.514 607.889 536.359 607.85
C 534.073 607.772 531.786 607.741 529.499 607.804
C 520.482 608.053 511.207 608.377 502.208 607.894
C 502.512 607.173 503.619 606.929 504.182 606.322
C 505.591 604.805 506.984 603.174 507.675 601.182
C 509.68 595.402 508.729 588.435 508.671 582.43
C 508.56 570.87 508.382 559.3 508.388 547.746
C 508.391 540.698 508.418 527.476 498.128 527.712
C 490.664 527.883 487.524 535.154 487.125 541.604
C 486.409 553.184 487.112 564.901 487.131 576.502
C 487.144 583.767 486.211 591.872 487.716 599.004
C 488.343 601.974 490.462 604.823 492.993 606.466
C 493.75 606.957 495.502 607.251 495.98 607.957
C 486.419 607.339 476.653 607.852 467.049 607.843
C 464.812 607.842 462.548 607.644 460.322 607.922
C 459.973 607.966 458.438 608.22 458.324 607.804
C 460.296 606.102 462.397 604.959 463.701 602.555
C 464.691 600.73 464.824 598.67 465.07 596.651
C 465.641 591.964 465.394 587.135 465.356 582.425
C 465.275 572.283 465.399 562.139 465.389 551.996
C 465.383 545.834 466.363 538.301 463.572 532.59
C 461.215 527.767 454.827 525.691 450.182 528.541
C 447.472 530.204 445.701 533.271 444.679 536.204
C 442.595 541.959 443.635 549.057 443.625 555.077
C 443.609 564.885 443.621 574.692 443.635 584.5
C 443.643 589.53 442.891 595.47 444.522 600.311
C 445.368 602.82 447.189 605.048 449.34 606.566
C 450.091 607.096 452.224 607.065 452.557 607.886
C 443.15 608.435 433.493 607.884 424.046 607.84
C 421.867 607.83 419.691 607.797 417.514 607.881
C 416.766 607.91 415.581 608.384 415.169 607.599
C 416.63 606.414 418.36 605.731 419.549 604.18
C 423.736 598.713 422.674 590.445 422.734 584.005
C 422.823 574.508 422.601 565.011 422.604 555.513
C 422.605 551.211 423.051 546.745 422.398 542.476
C 422.068 540.313 421.21 537.876 419.246 536.665
C 418.219 536.764 415.047 537.646 414.766 536.483 Z"
opacity="1" fill="rgb(213,78,10)" fill-rule="evenodd" />
<path d="
M 542.973 427.118
C 543.886 420.378 543.62 413.406 544.414 406.625
C 546.057 392.603 547.354 378.504 548.833 364.459
C 549.45 358.599 550.393 352.771 551.242 346.941
C 551.657 344.093 551.83 340.288 553.152 337.715
C 554.481 336.734 556.6 336.491 558.18 336.035
C 562.33 334.838 566.575 333.944 570.816 333.14
C 580.486 331.307 590.55 330.169 600.402 330.22
C 609.001 330.265 617.614 331.495 626.228 331.717
C 626.916 336.148 626.103 340.772 625.427 345.144
C 623.805 355.64 620.656 365.904 615.959 375.431
C 611.961 383.538 607.51 391.31 602.293 398.702
C 590.907 414.833 575.819 428.203 559.796 439.537
C 555.055 442.891 550.428 446.35 545.498 449.422
C 544.539 450.02 543.822 450.931 542.823 451.458
C 542.486 448.76 542.88 445.739 542.868 442.997
C 542.846 437.72 542.616 432.388 542.973 427.118 Z"
opacity="1" fill="rgb(216,79,10)" fill-rule="evenodd" />
<path d="
M 546.956 606.108
C 548.469 597.054 550.746 589.221 556.88 582.077
C 558.253 580.479 559.985 578.438 561.996 577.657
C 562.086 577.622 563.524 576.834 563.545 576.844
C 563.549 576.846 562.251 578.39 562.161 578.501
C 561.201 579.69 560.46 581.064 559.865 582.466
C 558.25 586.395 557.681 590.388 557.12 594.576
C 554.914 611.043 559.325 630.693 572.089 642.117
C 583.476 652.308 600.29 657.096 614.15 648.521
C 616.884 646.83 618.937 644.691 621.069 642.327
C 623.492 639.641 625.489 636.508 626.853 633.156
C 628.684 628.656 629.556 623.917 630.008 619.107
C 631.496 603.288 623.266 588.343 612.149 577.655
C 608.804 574.439 605.432 571.106 601.813 568.198
C 588.365 557.393 572.932 548.327 562.869 533.943
C 552.794 519.542 551.472 499.215 560.145 483.894
C 563.65 477.702 569.298 472.733 575.387 469.202
C 585.523 463.324 598.266 462.444 609.624 464.234
C 617.038 465.402 624.79 468.934 632.396 467.08
C 634.503 466.566 636.358 465.435 638.187 464.312
C 638.594 466.921 638.128 469.874 637.994 472.499
C 637.765 476.985 637.788 481.511 637.737 486.002
C 637.662 492.7 637.444 499.399 637.373 506.092
C 637.335 509.698 637.783 513.571 637.049 517.123
C 636.302 515.591 636.103 513.704 635.749 512.041
C 635.137 509.17 634.401 506.363 633.521 503.563
C 629.595 491.074 622.739 477.741 611.257 470.647
C 599.443 463.347 580.101 464.488 574.859 479.436
C 574.125 481.531 573.463 483.795 573.289 486.017
C 573.002 489.683 573.404 493.395 574.45 496.916
C 579.393 513.555 596.373 522.486 609.198 532.405
C 618.295 539.44 627.842 546.192 635.266 555.101
C 649.025 571.61 655.077 594.668 649.185 615.626
C 643.642 635.345 627.563 652.036 606.919 655.574
C 581.041 660.01 552.206 643.333 547.568 616.642
C 546.963 613.163 546.666 609.633 546.956 606.108 Z"
opacity="1" fill="rgb(215,79,11)" fill-rule="evenodd" />
<path d="
M 647.95 554.601
C 649.551 546.002 651.462 537.827 657.058 530.792
C 667.194 518.049 684.232 510.909 700.049 517.113
C 710.093 521.054 722.335 535.358 714.007 546.08
C 709.226 552.236 699.582 554.456 692.362 555.89
C 686.285 557.098 679.837 558.006 673.648 558.297
C 671.024 558.421 668.277 557.848 665.698 558.11
C 664.313 559.162 665.564 562.234 666.053 563.812
C 667.778 569.38 670.123 574.513 673.931 578.984
C 684.38 591.252 704.769 592.94 715.562 580.221
C 717.89 577.477 719.096 574.511 720.193 571.143
C 721.292 571.126 720.4 574.596 720.229 575.449
C 719.324 579.969 718.317 584.39 716.287 588.568
C 710.575 600.325 699.213 609.232 685.706 608.724
C 682.376 608.599 679.101 607.973 675.965 606.852
C 654.973 599.35 646.003 575.353 647.95 554.601 Z
M 664.475 544.11
C 664.16 548.009 663.636 552.961 664.607 556.781
C 665.937 557.222 667.602 556.933 668.999 556.879
C 672.236 556.755 675.505 556.671 678.678 555.964
C 683.75 554.835 688.383 554.043 692.329 550.372
C 699.614 543.594 700.442 529.866 695.288 521.648
C 690.723 514.37 679.228 515.661 673.602 521.12
C 671.331 523.324 669.65 526.526 668.389 529.399
C 666.257 534.251 665.498 538.986 664.475 544.11 Z"
opacity="1" fill="rgb(213,77,11)" fill-rule="evenodd" />
<path d="
M 712.415 515.469
C 728.134 510.12 739.173 497.267 746.088 482.631
C 747.175 482.115 746.704 484.188 746.693 484.99
C 746.656 487.657 746.747 490.329 746.749 492.997
C 746.754 500.044 746.879 507.133 746.7 514.173
C 750.462 514.198 754.239 514.239 758.008 514.306
C 759.682 514.336 761.844 514.001 763.425 514.548
C 763.495 515.165 763.511 515.81 763.386 516.418
C 757.913 516.711 752.063 515.9 746.658 516.785
C 746.311 535.672 746.69 554.608 746.699 573.501
C 746.701 578.391 746.239 583.536 747.081 588.374
C 747.431 590.383 748.06 592.668 749.673 594.046
C 755.878 599.348 763.645 591.311 766.17 586.077
C 767.006 584.344 767.188 582.342 768.307 580.76
C 769.186 581.375 768.186 584.231 768.035 585.133
C 767.279 589.629 766.388 594.086 763.998 598.045
C 762.198 601.024 759.738 603.987 756.722 605.799
C 748.836 610.539 737.64 610.053 731.006 603.361
C 723.497 595.789 723.899 584.477 723.886 574.588
C 723.86 555.286 724.628 535.782 723.817 516.489
C 723.015 516.075 721.885 516.281 721.002 516.305
C 719.007 516.357 716.997 516.439 715.002 516.43
C 713.914 516.425 712.16 516.961 712.415 515.469 Z"
opacity="1" fill="rgb(214,77,10)" fill-rule="evenodd" />
<path d="
M 762.038 476.111
C 767.256 472.45 773.381 469.907 778.794 466.495
C 784.29 463.03 789.169 458.601 794.631 455.109
C 795.508 457.683 794.766 461.763 794.752 464.499
C 794.716 471.583 794.623 478.666 794.591 485.75
C 794.474 511.66 794.358 537.587 794.373 563.504
C 794.378 570.758 794.366 578.012 794.373 585.265
C 794.377 589.947 794.104 595.1 795.787 599.555
C 796.996 602.756 799.83 606.682 803.63 606.887
C 804.441 606.931 804.893 606.318 805.438 605.841
C 806.91 604.551 808.227 603.454 809.077 601.625
C 811.983 595.373 810.655 586.703 810.65 580.009
C 810.643 571.343 810.598 562.673 810.669 554.007
C 810.708 549.38 811.441 543.74 809.972 539.275
C 809.378 537.468 807.557 535.453 805.561 535.215
C 804.591 535.1 800.843 536.404 800.679 535.541
C 803.572 533.396 807.158 531.966 810.254 530.1
C 815.549 526.908 820.489 523.138 825.361 519.35
C 827.33 517.82 829.097 516.019 831.087 514.526
C 831.514 514.205 832.402 513.196 832.904 513.258
C 833.257 515.37 832.848 517.838 832.859 519.995
C 832.883 524.999 832.939 530 832.901 535.004
C 832.789 549.501 832.772 564 832.79 578.497
C 832.8 586.605 831.129 597.217 837.214 603.65
C 839.051 605.592 841.174 606.411 843.482 607.581
C 842.782 608.293 839.953 607.74 839 607.74
C 834.501 607.74 830.001 607.846 825.5 607.831
C 810.328 607.779 795.172 607.76 779.998 607.76
C 776.003 607.76 772.009 607.743 768.014 607.707
C 766.837 607.697 764.714 608.278 763.737 607.529
C 765.79 606.135 767.813 604.802 769.202 602.654
C 770.881 600.058 771.191 597.009 771.354 594
C 771.647 588.608 770.81 582.98 771.491 577.632
C 771.908 574.354 771.495 570.931 771.429 567.637
C 771.332 562.758 771.404 557.875 771.404 552.996
C 771.404 536.917 771.669 520.865 771.63 504.81
C 771.617 499.099 771.561 493.387 771.437 487.683
C 771.358 484.052 771.036 480.303 768.04 477.792
C 766.958 476.885 765.66 476.295 764.231 476.441
C 763.398 476.526 762.392 476.956 761.609 476.559
C 761.752 476.409 761.895 476.26 762.038 476.111 Z"
opacity="1" fill="rgb(214,78,10)" fill-rule="evenodd" />
<path d="
M 806.938 490.1
C 807.102 488.221 807.62 486.352 808.51 484.69
C 809.444 482.944 810.716 481.329 812.264 480.084
C 818.144 475.353 827.687 476.814 832.261 482.724
C 834.444 485.544 835.381 489.441 835.089 492.973
C 834.915 495.074 834.328 497.177 833.325 499.034
C 829.505 506.112 819.898 508.572 813.169 503.936
C 808.78 500.911 806.478 495.34 806.938 490.1 Z"
opacity="1" fill="rgb(215,79,10)" fill-rule="evenodd" />
<path d="
M 902.078 521.414
C 902.41 521.767 902.754 522.101 903.104 522.435
C 904.485 524.012 904.107 527.413 904.133 529.435
C 904.183 533.455 904.116 537.475 904.132 541.495
C 904.141 543.747 904.468 546.313 903.998 548.521
C 902.673 545.727 901.869 542.655 900.567 539.83
C 899.284 537.045 897.512 534.488 895.755 531.987
C 891.526 525.967 886.575 519.96 879.48 517.285
C 873.094 514.877 862.632 515.642 859.908 523.045
C 855.723 534.42 869.439 541.846 877.62 545.77
C 892.157 552.744 911.365 561.002 911.873 579.758
C 911.956 582.805 911.587 585.717 910.838 588.666
C 910.221 591.098 909.071 593.33 907.776 595.462
C 897.79 611.9 874.382 611.818 858.489 605.399
C 855.247 604.089 852.052 602.589 848.972 600.935
C 847.367 600.072 845.366 599.081 844.301 597.537
C 843.015 595.67 843.72 591.944 843.821 589.79
C 844.148 582.779 845.705 575.838 845.952 568.836
C 846.68 569.124 846.9 570.887 847.139 571.617
C 848.068 574.449 849.218 577.229 850.461 579.938
C 854.143 587.967 859.103 596.551 866.061 602.188
C 872.095 607.077 880.9 608.711 888.242 606.024
C 895.244 603.463 898.946 595.499 894.98 588.818
C 891.55 583.041 886.23 579.735 880.548 576.463
C 870.359 570.596 857.527 565.769 850.386 555.967
C 848.279 553.075 846.446 549.963 845.603 546.455
C 842.363 532.98 850.849 519.587 863.967 515.628
C 876.435 511.865 890.947 515.175 902.078 521.414 Z"
opacity="1" fill="rgb(213,78,11)" fill-rule="evenodd" />
<path d="
M 906.673 515.382
C 910.084 512.717 914.524 511.238 918.084 508.66
C 927.399 501.917 936.488 491.963 940.647 481.057
C 941.507 480.185 941.319 482.406 941.291 483.067
C 941.166 486.038 941.175 489.026 941.196 492.001
C 941.25 499.325 941.655 506.919 941.145 514.214
C 942.847 514.496 944.765 514.154 946.504 514.173
C 950.897 514.22 955.289 514.232 959.677 514.379
C 960.047 514.887 959.896 515.753 959.73 516.325
C 953.688 516.664 947.173 515.571 941.208 516.587
C 940.892 521.525 941.224 526.555 941.219 531.503
C 941.209 541.669 941.191 551.835 941.181 562.001
C 941.176 567.335 941.177 572.668 941.189 578.002
C 941.196 581.505 940.939 585.207 941.815 588.63
C 943.329 594.547 950.578 595.922 955.419 593.122
C 960.857 589.976 962.804 584.718 964.847 579.184
C 965.152 579.15 965.497 578.926 965.761 579.081
C 966.045 579.247 965.673 579.733 965.667 580.061
C 965.646 581.408 965.164 582.742 964.964 584.065
C 964.226 588.962 962.806 594.212 959.762 598.22
C 957.108 601.714 953.999 604.911 950.03 606.896
C 942.731 610.549 932.35 609.275 926.141 604.028
C 917.739 596.928 917.346 585.414 917.405 575.292
C 917.481 562.36 917.406 549.428 917.387 536.497
C 917.377 529.793 917.097 523.015 917.462 516.32
C 915.053 515.775 911.988 516.299 909.507 516.303
C 908.252 516.305 906.953 516.764 906.673 515.382 Z"
opacity="1" fill="rgb(213,77,10)" fill-rule="evenodd" />

</svg>